<svg width="53" height="46" viewBox="0 0 53 46" fill="none" xmlns="http://www.w3.org/2000/svg">
<rect width="53" height="46" fill="#1E1E1E"/>
<rect x="-7423" y="-7275" width="25147" height="11313" fill="#D9D9D9"/>
<rect x="-881" y="-1344" width="1080" height="2400" rx="100" fill="#100F1F"/>
<rect x="-773" y="-62" width="864" height="146" rx="40" fill="white"/>
<path d="M52.1213 25.1213C53.2929 23.9497 53.2929 22.0503 52.1213 20.8787L33.0294 1.7868C31.8579 0.615223 29.9584 0.615223 28.7868 1.7868C27.6152 2.95837 27.6152 4.85786 28.7868 6.02944L45.7574 23L28.7868 39.9706C27.6152 41.1421 27.6152 43.0416 28.7868 44.2132C29.9584 45.3848 31.8579 45.3848 33.0294 44.2132L52.1213 25.1213ZM0 26L50 26V20L0 20L0 26Z" fill="url(#paint0_linear_0_1)"/>
<defs>
<linearGradient id="paint0_linear_0_1" x1="0" y1="23" x2="50" y2="23" gradientUnits="userSpaceOnUse">
<stop stop-color="#7834A4"/>
<stop offset="1" stop-color="#4A34A5"/>
</linearGradient>
</defs>
</svg>
